# xmcd
#
# Track frame offsets: 
#        150
#        11287
#        29891
#        43618
#        68108
#        83727
#        106393
#        125287
#        145282
#        161561
#        174522
#        190549
#        192189
#        205924
#        223152
#        249544
#        258232
#        271037
#        279887
#
# Disc length: 4030 seconds
#
# Revision: 0
# Processed by: cddbd v1.5.2PL0 Copyright (c) Steve Scherf et al.
# Submitted via: ExactAudioCopy v1.0b3
#
DISCID=090fbc13
DTITLE=Crankshaft and The Gear Grinders - Lubricated, Loud, and Live!
DYEAR=2011
DGENRE=Blues
TTITLE0=Crankshaft
TTITLE1=Jaguar And Thunderbird
TTITLE2=Junkyard Rhythm
TTITLE3=Terraplane Blues
TTITLE4=Nail Driver
TTITLE5=Nasty
TTITLE6=327
TTITLE7=The Curse
TTITLE8=Solid Gone
TTITLE9=Neighbor Boys
TTITLE10=Eatin' Chili
TTITLE11=Red Hot Chili Cupcakes
TTITLE12=Cadillac Man
TTITLE13=Sleepy Town
TTITLE14=Boogie!
TTITLE15=Run Chicken Run
TTITLE16=Outro
TTITLE17=Its Recording Right Now!
TTITLE18=House of the Rising Sun
EXTD=
EXTT0=
EXTT1=
EXTT2=
EXTT3=
EXTT4=
EXTT5=
EXTT6=
EXTT7=
EXTT8=
EXTT9=
EXTT10=
EXTT11=
EXTT12=
EXTT13=
EXTT14=
EXTT15=
EXTT16=
EXTT17=
EXTT18=
PLAYORDER=
